PathFileType        4      (X/Y/Z)      Flexion.trc         																																																																												
DataRate	CameraRate	NumFrames	NumMarkers	Units	OrigDataRate	OrigDataStartFrame	OrigNumFrames																																																																					
100	100	4	25	mm	100	132	1053																																																																					
Frame#	Time	AA			AI			Ant_Sh			CV7			GH			LAH			Lat_Sh			LCAJ			LPH			Post_Sh			RAH			RCAJ			RHLE			RHME			RPH			RUA			SJN			SXS			TS			TV8			centelbow			centpxt8			centijc7			centLPHRPH			ScapulaThoracicContactPt		
		X1	Y1	Z1	X2	Y2	Z2	X3	Y3	Z3	X4	Y4	Z4	X5	Y5	Z5	X6	Y6	Z6	X7	Y7	Z7	X8	Y8	Z8	X9	Y9	Z9	X10	Y10	Z10	X11	Y11	Z11	X12	Y12	Z12	X13	Y13	Z13	X14	Y14	Z14	X15	Y15	Z15	X16	Y16	Z16	X17	Y17	Z17	X18	Y18	Z18	X19	Y19	Z19	X20	Y20	Z20	X21	Y21	Z21	X22	Y22	Z22	X23	Y23	Z23	X24	Y24	Z24	X25	Y25	Z25
132	1.31	-875.4021606	1530.573608	-398.4238281	-929.0183105	1356.977051	-465.8941956	-760.5853882	1510.577637	-424.9519043	-911.6754761	1591.565796	-599.1311035	-814.2105713	1502.063599	-413.5578003	-698.4951172	1773.348267	-647.6027832	-810.6924438	1523.290527	-381.1385498	-856.3635254	1557.705811	-786.1856079	-902.9508667	1727.032593	-657.3640137	-896.0046387	1489.077026	-396.1784973	-700.7028198	1770.088867	-550.78302	-828.9129028	1564.604492	-438.4833984	-662.5001221	1286.240601	-288.0536194	-696.5092773	1207.56665	-374.0889893	-900.6832275	1727.311646	-540.4592285	-813.8004761	1347.121948	-333.7884216	-741.651123	1510.567993	-612.090332	-681.4119873	1338.152588	-614.2137451	-948.9382324	1495.539673	-505.0475464	-912.989502	1301.872314	-606.2262573	-679.5046997	1246.903625	-331.0713043	-797.2007446	1320.012451	-610.2200012	-826.6632996	1551.066895	-605.6107178	-901.8170471	1727.172119	-598.9116211	-917.7862345	1461.030111	-456.45519
133	1.32	-874.9983521	1530.855713	-397.9863892	-928.8233643	1357.22583	-465.5201111	-759.9863892	1512.27063	-425.7484131	-911.6420898	1591.760986	-599.0470581	-813.526062	1503.032959	-413.7949524	-698.9523315	1773.458862	-647.2254639	-809.991394	1524.485474	-381.3845825	-856.7406616	1557.907227	-785.9458618	-903.2977905	1727.0896	-657.1794434	-895.1375122	1488.952026	-395.5740356	-701.2422485	1770.181519	-550.3227539	-829.5185547	1564.69873	-438.7838745	-655.022583	1292.762573	-287.8890381	-687.0042725	1212.251831	-373.1775208	-901.170105	1727.326294	-540.2721558	-808.5365601	1348.869751	-333.2495117	-742.0692749	1510.669556	-611.9933472	-681.8269653	1338.233154	-614.0461426	-949.2747192	1495.553467	-504.515625	-913.40802	1301.942993	-606.2445679	-671.0134277	1252.507202	-330.5332794	-797.6174927	1320.088074	-610.1453552	-826.8556824	1551.215271	-605.5202026	-902.2339478	1727.207947	-598.7257996	-917.6988118	1461.21167	-456.0073751
134	1.33	-874.6489868	1531.040161	-397.6629333	-928.595459	1357.550903	-465.1613159	-759.2032471	1513.851196	-426.6150513	-912.0241089	1591.738525	-598.8314819	-812.6971436	1503.988525	-414.0199585	-699.3678589	1773.560425	-646.6976929	-809.1494141	1525.856201	-381.8286438	-857.1307983	1558.047729	-785.7885132	-903.6668091	1727.079712	-656.9890747	-894.2163696	1488.958984	-394.8263245	-701.777832	1770.277588	-549.8485718	-829.7128296	1564.913696	-439.0334167	-647.5852661	1299.755981	-287.708313	-677.4714355	1217.616821	-372.3066711	-901.671936	1727.35437	-540.109375	-803.1316528	1350.911865	-332.6720886	-742.4503784	1510.756348	-611.9086914	-682.1567993	1338.463989	-613.8478394	-949.5895996	1495.542236	-503.9211121	-913.8140259	1302.074707	-606.2804565	-662.5283508	1258.686401	-330.0074921	-797.9854126	1320.269348	-610.0641479	-827.2372437	1551.247437	-605.3700867	-902.6693726	1727.217041	-598.5492249	-917.6113485	1461.377767	-455.5817871
135	1.34	-874.2044678	1531.40564	-397.2404175	-928.4348145	1357.791748	-464.7627258	-758.602478	1515.222412	-427.7911377	-912.3933105	1591.765381	-598.6027832	-811.9884644	1504.828125	-414.4868164	-699.7189941	1773.65979	-646.1630859	-808.3345947	1527.10498	-382.4209595	-857.5404053	1558.252686	-785.5223389	-904.0272827	1727.140381	-656.8031006	-893.3007202	1488.996582	-394.2229919	-702.3843384	1770.402588	-549.2321167	-829.8646851	1565.243774	-439.348877	-640.2979126	1307.01355	-287.7514954	-667.9000244	1223.331665	-371.5047302	-902.2387085	1727.380249	-539.9009399	-798.0938721	1353.218628	-332.2910156	-742.8773804	1510.854492	-611.8283081	-682.569397	1338.523315	-613.6656494	-949.944397	1495.585815	-503.3605347	-914.1920166	1302.155396	-606.2738037	-654.0989685	1265.172607	-329.6281128	-798.3807068	1320.339355	-609.9697266	-827.6353455	1551.309937	-605.2155457	-903.1329956	1727.260315	-598.3520203	-917.5278931	1461.594401	-455.121226
